<svg data-v-423bf9ae="" xmlns="http://www.w3.org/2000/svg" viewBox="0 0 463 90" class="iconLeft"><!----><!----><!----><g data-v-423bf9ae="" id="6a2524bb-24ef-4d20-b525-566a897f4f43" fill="#000000" transform="matrix(5.6232428550720215,0,0,5.6232428550720215,83.47900390625,15.7310209274292)"><path d="M2.38 1.30L3.67 1.30L4.52 2.16L4.52 4.76L3.65 5.70L2.38 5.70ZM2.38 6.97L3.49 6.97L5.12 10.50L6.52 10.50L4.66 6.48L5.80 5.26L5.80 1.64L4.19 0.01L0.34 0.01L0.34 1.30L1.64 1.30L1.64 1.40L1.11 1.72L1.11 10.50L2.38 10.50ZM7.06 10.50L8.34 10.50L8.75 7.77L10.93 7.77L11.34 10.50L12.63 10.50L11.07 0.01L8.61 0.01ZM10.75 6.50L8.93 6.50L9.70 1.29L9.97 1.29ZM13.97 10.50L15.25 10.50L15.25 5.46L15.09 2.25L15.13 2.25L16.04 5.35L17.68 10.50L19.04 10.50L19.04 0.04L17.77 0.04L17.77 3.72L18.00 7.71L17.96 7.71L16.88 3.79L15.69 0.04L13.97 0.04ZM24.98 3.50L26.25 3.50L26.25 1.60L24.70 0.04L22.57 0.04L21.01 1.60L21.01 8.86L22.55 10.50L24.71 10.50L26.25 8.86L26.25 4.80L23.56 4.80L23.56 6.06L24.98 6.06L24.98 8.36L24.12 9.28L23.14 9.28L22.29 8.36L22.29 2.11L23.13 1.26L24.14 1.26L24.98 2.11ZM33.38 1.46L31.79-0.13L29.79-0.13L28.21 1.46L28.21 8.86L29.78 10.54L31.79 10.54L33.38 8.86ZM31.25 9.28L30.32 9.28L29.47 8.37L29.47 1.97L30.31 1.13L31.26 1.13L32.10 1.97L32.10 8.37ZM36.12 6.64L34.85 6.64L34.85 8.89L36.23 10.50L38.37 10.50L39.76 8.89L39.76 0.03L35.84 0.03L35.84 1.19L39.00 1.19L39.00 1.29L38.47 1.61L38.47 8.41L37.70 9.32L36.89 9.32L36.12 8.41ZM41.03 10.50L42.32 10.50L42.73 7.77L44.91 7.77L45.32 10.50L46.61 10.50L45.05 0.01L42.59 0.01ZM44.73 6.50L42.91 6.50L43.68 1.29L43.95 1.29ZM47.95 10.50L49.22 10.50L49.22 5.46L49.07 2.25L49.11 2.25L50.02 5.35L51.66 10.50L53.02 10.50L53.02 0.04L51.74 0.04L51.74 3.72L51.98 7.71L51.94 7.71L50.86 3.79L49.67 0.04L47.95 0.04ZM58.95 3.50L60.23 3.50L60.23 1.60L58.67 0.04L56.55 0.04L54.99 1.60L54.99 8.86L56.53 10.50L58.69 10.50L60.23 8.86L60.23 4.80L57.54 4.80L57.54 6.06L58.95 6.06L58.95 8.36L58.10 9.28L57.12 9.28L56.27 8.36L56.27 2.11L57.11 1.26L58.11 1.26L58.95 2.11ZM67.35 1.46L65.77-0.13L63.77-0.13L62.19 1.46L62.19 8.86L63.76 10.54L65.77 10.54L67.35 8.86ZM65.23 9.28L64.30 9.28L63.45 8.37L63.45 1.97L64.29 1.13L65.24 1.13L66.08 1.97L66.08 8.37Z"></path></g><!----><g data-v-423bf9ae="" id="108f5cd1-3e25-49d4-baf3-7c628325c9d3" transform="matrix(1.0845669507980347,0,0,1.0845669507980347,-21.37438201904297,-8.720050811767578)" stroke="none" fill="#059669"><path d="M73.255 20.157c-3.147-.161-5.801 2.265-5.954 5.401-.765 15.668-4.567 19.853-5.716 20.762-.833.661-1.43.612-1.589.583.14.025-.775.059-1.402.079l.456-29.674a7.958 7.958 0 0 0-7.959-7.959 7.959 7.959 0 0 0-7.959 7.959l.681 44.413c-.64-.009-1.488-.024-1.418-.041-.179.043-1.8.384-3.504-.934-1.684-1.304-5.628-6.03-5.898-21.744a5.684 5.684 0 0 0-5.682-5.587l-.1.001a5.684 5.684 0 0 0-5.586 5.781c.267 15.554 3.899 25.952 10.798 30.906 3.359 2.412 6.727 3.009 9.234 3.009.905 0 1.688-.079 2.328-.177l.284 18.562h13.643l.511-33.334c.529.074 1.086.122 1.679.122 2.301 0 5.019-.621 7.599-2.361 6.612-4.456 10.196-14.208 10.957-29.812a5.686 5.686 0 0 0-5.403-5.955z"></path><path d="M43.208 22.375H41.38c-.078 0-.142-.064-.142-.142s.064-.142.142-.142h1.828c.078 0 .142.064.142.142s-.064.142-.142.142z"></path><path d="M43.085 22.295a.14.14 0 0 1-.071-.019l-1.582-.914a.142.142 0 0 1 .142-.246l1.582.914a.142.142 0 0 1-.071.265z"></path><path d="M41.502 23.389a.142.142 0 0 1-.071-.265l1.583-.914a.142.142 0 0 1 .142.246l-1.583.914a.14.14 0 0 1-.071.019zM46.729 10.692l-.946-1.564a.143.143 0 0 1 .048-.195.142.142 0 0 1 .195.048l.945 1.564c.041.066.019.154-.048.195s-.153.019-.194-.048z"></path><path d="M46.734 10.546a.143.143 0 0 1-.021-.07l-.037-1.827a.143.143 0 0 1 .285-.006l.037 1.827a.144.144 0 0 1-.139.146.151.151 0 0 1-.125-.07z"></path><path d="M44.979 9.757a.143.143 0 0 1 .191-.198l1.601.882a.143.143 0 0 1 .056.193.144.144 0 0 1-.193.056l-1.602-.882a.137.137 0 0 1-.053-.051zM29.706 34.143l.638-1.713a.142.142 0 1 1 .266.1l-.638 1.712a.143.143 0 0 1-.183.084.144.144 0 0 1-.083-.183z"></path><path d="M29.824 34.056a.146.146 0 0 1 .042-.06l1.408-1.165a.144.144 0 0 1 .201.02c.05.062.041.15-.019.201l-1.408 1.164a.144.144 0 0 1-.201-.019.145.145 0 0 1-.023-.141z"></path><path d="M29.352 32.19a.142.142 0 0 1 .11-.09c.077-.013.15.04.164.117l.304 1.802a.145.145 0 0 1-.117.165.143.143 0 0 1-.164-.117l-.304-1.803a.134.134 0 0 1 .007-.074zM59.069 17.833h1.828a.142.142 0 1 0 0-.284h-1.828a.143.143 0 0 0-.142.142.143.143 0 0 0 .142.142z"></path><path d="M59.192 17.753a.14.14 0 0 0 .071-.019l1.582-.914a.142.142 0 1 0-.141-.246l-1.583.914a.143.143 0 0 0-.052.194.143.143 0 0 0 .123.071z"></path><path d="M60.774 18.847c.05 0 .099-.025.125-.071a.143.143 0 0 0-.054-.194l-1.583-.914a.142.142 0 0 0-.142.246l1.584.914a.137.137 0 0 0 .07.019zM74.729 20.45l.412-1.78a.142.142 0 0 0-.106-.17.142.142 0 0 0-.171.106l-.411 1.781a.141.141 0 1 0 .276.063z"></path><path d="M74.679 20.312a.122.122 0 0 0-.003-.073l-.533-1.747a.144.144 0 0 0-.178-.095.144.144 0 0 0-.095.178l.534 1.747a.143.143 0 0 0 .178.095.148.148 0 0 0 .097-.105z"></path><path d="M76.1 19.016a.14.14 0 0 0-.041-.137.144.144 0 0 0-.201.008l-1.246 1.337a.14.14 0 0 0 .008.2c.057.054.146.05.2-.006l1.247-1.336a.142.142 0 0 0 .033-.066z"></path><g><path d="M58.664 32.401h1.828a.142.142 0 1 0 0-.284h-1.828c-.078 0-.142.064-.142.142s.064.142.142.142z"></path><path d="M58.787 32.321a.14.14 0 0 0 .071-.019l1.582-.914a.142.142 0 1 0-.141-.246l-1.583.914a.143.143 0 0 0-.052.194.143.143 0 0 0 .123.071z"></path><path d="M60.369 33.415a.144.144 0 0 0 .125-.071.143.143 0 0 0-.054-.194l-1.583-.914a.142.142 0 0 0-.142.246l1.584.914a.134.134 0 0 0 .07.019z"></path></g><g><path d="M58.663 39.775h1.827a.143.143 0 0 0 .143-.142.141.141 0 0 0-.143-.142h-1.827a.143.143 0 0 0-.143.142.144.144 0 0 0 .143.142z"></path><path d="M58.786 39.695a.14.14 0 0 0 .071-.019l1.582-.914a.144.144 0 0 0 .053-.194.142.142 0 0 0-.194-.052l-1.583.914a.143.143 0 0 0-.052.194.143.143 0 0 0 .123.071z"></path><path d="M60.368 40.789a.145.145 0 0 0 .125-.071.143.143 0 0 0-.054-.194l-1.583-.914a.142.142 0 1 0-.142.246l1.584.914a.144.144 0 0 0 .07.019z"></path></g><g><path d="M58.014 67.952h1.827a.143.143 0 0 0 0-.285h-1.827a.143.143 0 0 0-.143.142c0 .079.065.143.143.143z"></path><path d="M58.137 67.872a.151.151 0 0 0 .071-.019l1.582-.914a.143.143 0 0 0 .052-.194.142.142 0 0 0-.194-.052l-1.582.913a.143.143 0 0 0 .071.266z"></path><path d="M59.719 68.966a.145.145 0 0 0 .125-.071.144.144 0 0 0-.054-.194l-1.583-.913a.14.14 0 0 0-.193.052.142.142 0 0 0 .051.194l1.583.914a.147.147 0 0 0 .071.018z"></path></g><g><path d="M33.821 50.298l1.806-.276a.142.142 0 1 0-.043-.281l-1.807.276a.144.144 0 0 0-.119.162.145.145 0 0 0 .163.119z"></path><path d="M33.931 50.2a.154.154 0 0 0 .067-.029l1.426-1.143a.142.142 0 1 0-.178-.221L33.82 49.95a.142.142 0 0 0 .111.25z"></path><path d="M35.66 51.041a.14.14 0 0 0 .112-.088.145.145 0 0 0-.082-.185l-1.703-.663a.143.143 0 0 0-.184.08.144.144 0 0 0 .08.185l1.703.664c.024.01.049.012.074.007z"></path></g><g><path d="M78.081 32.033l1.777.425a.142.142 0 1 0 .066-.276l-1.777-.424a.142.142 0 0 0-.066.275z"></path><path d="M78.22 31.984a.14.14 0 0 0 .073-.002l1.751-.521a.145.145 0 0 0 .096-.177.141.141 0 0 0-.177-.095l-1.751.521a.145.145 0 0 0-.097.177.148.148 0 0 0 .105.097z"></path><path d="M79.504 33.415a.142.142 0 0 0 .132-.241l-1.328-1.256a.142.142 0 0 0-.2.006.141.141 0 0 0 .005.201l1.327 1.257a.156.156 0 0 0 .064.033z"></path></g><g><path d="M74.908 45.434l1.71.646a.145.145 0 0 0 .184-.083.145.145 0 0 0-.083-.184l-1.71-.645a.143.143 0 0 0-.184.083.144.144 0 0 0 .083.183z"></path><path d="M75.053 45.403a.135.135 0 0 0 .072.007l1.804-.296a.142.142 0 0 0 .116-.164.142.142 0 0 0-.162-.117l-1.804.296a.142.142 0 0 0-.026.274z"></path><path d="M76.146 46.985c.046.018.1.011.141-.022.06-.05.07-.139.02-.201l-1.158-1.414a.143.143 0 0 0-.2-.019.141.141 0 0 0-.02.199l1.158 1.415a.137.137 0 0 0 .059.042z"></path></g><g><path d="M43.598 45.817H41.77a.142.142 0 1 1 0-.284h1.828a.142.142 0 1 1 0 .284z"></path><path d="M43.476 45.737a.14.14 0 0 1-.071-.019l-1.583-.914a.142.142 0 0 1 .142-.246l1.583.914a.143.143 0 0 1 .052.194.143.143 0 0 1-.123.071z"></path><path d="M41.893 46.831a.142.142 0 0 1-.071-.265l1.583-.914a.143.143 0 0 1 .194.052.143.143 0 0 1-.052.194l-1.583.914a.14.14 0 0 1-.071.019z"></path></g><g><path d="M21.857 45.398l-1.805.285a.144.144 0 0 1-.163-.119.143.143 0 0 1 .118-.163l1.805-.284a.143.143 0 0 1 .045.281z"></path><path d="M21.723 45.339a.153.153 0 0 1-.073-.008l-1.705-.657a.144.144 0 0 1-.083-.184.143.143 0 0 1 .184-.082l1.706.657a.145.145 0 0 1 .082.185.142.142 0 0 1-.111.089z"></path><path d="M20.33 46.665a.143.143 0 0 1-.111-.251l1.422-1.148a.144.144 0 0 1 .2.021c.049.061.04.15-.021.2l-1.422 1.149a.141.141 0 0 1-.068.029z"></path></g></g><!----></svg>