<svg data-v-423bf9ae="" xmlns="http://www.w3.org/2000/svg" viewBox="0 0 409 90" class="iconLeft"><!----><!----><!----><g data-v-423bf9ae="" id="ef45e43f-3787-4d93-88c8-ea7706c2fc94" fill="#000000" transform="matrix(5.253940582275391,0,0,5.253940582275391,81.7131576538086,-0.7618227005004883)"><path d="M3.60 8.34L2.66 8.34L2.66 12.05L0.70 12.05L0.70 3.00L4.19 3.00L4.19 3.00Q5.92 3.00 5.92 4.84L5.92 4.84L5.92 5.89L5.92 5.89Q5.92 7.01 5.12 7.32L5.12 7.32L5.12 7.32Q5.82 7.57 5.82 8.47L5.82 8.47L5.82 12.05L3.86 12.05L3.86 8.62L3.86 8.62Q3.86 8.34 3.60 8.34L3.60 8.34ZM3.70 4.33L2.66 4.33L2.66 6.97L3.70 6.97L3.70 6.97Q3.81 6.97 3.89 6.89L3.89 6.89L3.89 6.89Q3.96 6.80 3.96 6.69L3.96 6.69L3.96 4.61L3.96 4.61Q3.96 4.49 3.89 4.41L3.89 4.41L3.89 4.41Q3.81 4.33 3.70 4.33L3.70 4.33ZM10.58 5.73L10.58 5.22L12.17 5.22L12.17 12.05L10.58 12.05L10.58 11.55L10.58 11.55Q10.15 12.19 9.14 12.19L9.14 12.19L8.85 12.19L8.85 12.19Q7.11 12.19 7.11 10.35L7.11 10.35L7.11 6.93L7.11 6.93Q7.11 5.08 8.85 5.08L8.85 5.08L9.14 5.08L9.14 5.08Q10.15 5.08 10.58 5.73L10.58 5.73ZM10.29 10.57L10.29 10.57L10.29 6.71L10.29 6.71Q10.29 6.59 10.21 6.51L10.21 6.51L10.21 6.51Q10.14 6.43 10.02 6.43L10.02 6.43L9.25 6.43L9.25 6.43Q9.14 6.43 9.07 6.51L9.07 6.51L9.07 6.51Q8.99 6.59 8.99 6.71L8.99 6.71L8.99 10.57L8.99 10.57Q8.99 10.68 9.07 10.77L9.07 10.77L9.07 10.77Q9.14 10.85 9.25 10.85L9.25 10.85L10.02 10.85L10.02 10.85Q10.14 10.85 10.21 10.77L10.21 10.77L10.21 10.77Q10.29 10.68 10.29 10.57ZM15.32 6.71L15.32 12.05L13.44 12.05L13.44 5.22L15.15 5.22L15.15 5.57L15.15 5.57Q15.58 5.08 16.46 5.08L16.46 5.08L16.76 5.08L16.76 5.08Q18.49 5.08 18.49 6.93L18.49 6.93L18.49 12.05L16.62 12.05L16.62 6.71L16.62 6.71Q16.62 6.59 16.54 6.51L16.54 6.51L16.54 6.51Q16.46 6.43 16.35 6.43L16.35 6.43L15.58 6.43L15.58 6.43Q15.47 6.43 15.39 6.51L15.39 6.51L15.39 6.51Q15.32 6.59 15.32 6.71L15.32 6.71ZM23.24 5.22L24.82 5.22L24.82 12.57L24.82 12.57Q24.82 14.42 23.09 14.42L23.09 14.42L21.69 14.42L21.69 14.42Q19.95 14.42 19.95 12.57L19.95 12.57L19.95 12.35L21.64 12.35L21.64 12.80L21.64 12.80Q21.64 12.91 21.72 12.99L21.72 12.99L21.72 12.99Q21.80 13.08 21.91 13.08L21.91 13.08L22.68 13.08L22.68 13.08Q22.79 13.08 22.87 12.99L22.87 12.99L22.87 12.99Q22.95 12.91 22.95 12.80L22.95 12.80L22.95 11.40L22.95 11.40Q22.51 11.73 21.80 11.73L21.80 11.73L21.50 11.73L21.50 11.73Q19.77 11.73 19.77 9.88L19.77 9.88L19.77 6.93L19.77 6.93Q19.77 5.08 21.50 5.08L21.50 5.08L21.80 5.08L21.80 5.08Q22.81 5.08 23.24 5.73L23.24 5.73L23.24 5.22ZM22.95 10.11L22.95 10.11L22.95 6.71L22.95 6.71Q22.95 6.59 22.87 6.51L22.87 6.51L22.87 6.51Q22.79 6.43 22.68 6.43L22.68 6.43L21.91 6.43L21.91 6.43Q21.80 6.43 21.72 6.51L21.72 6.51L21.72 6.51Q21.64 6.59 21.64 6.71L21.64 6.71L21.64 10.11L21.64 10.11Q21.64 10.22 21.72 10.30L21.72 10.30L21.72 10.30Q21.80 10.39 21.91 10.39L21.91 10.39L22.68 10.39L22.68 10.39Q22.79 10.39 22.87 10.30L22.87 10.30L22.87 10.30Q22.95 10.22 22.95 10.11ZM31.15 6.93L31.15 6.93L31.15 10.35L31.15 10.35Q31.15 12.19 29.41 12.19L29.41 12.19L27.83 12.19L27.83 12.19Q26.10 12.19 26.10 10.35L26.10 10.35L26.10 6.93L26.10 6.93Q26.10 5.08 27.83 5.08L27.83 5.08L29.41 5.08L29.41 5.08Q31.15 5.08 31.15 6.93ZM29.27 10.74L29.27 10.74L29.27 6.52L29.27 6.52Q29.27 6.41 29.20 6.33L29.20 6.33L29.20 6.33Q29.12 6.24 29.01 6.24L29.01 6.24L28.24 6.24L28.24 6.24Q28.13 6.24 28.05 6.33L28.05 6.33L28.05 6.33Q27.97 6.41 27.97 6.52L27.97 6.52L27.97 10.74L27.97 10.74Q27.97 10.85 28.05 10.93L28.05 10.93L28.05 10.93Q28.13 11.02 28.24 11.02L28.24 11.02L29.01 11.02L29.01 11.02Q29.12 11.02 29.20 10.93L29.20 10.93L29.20 10.93Q29.27 10.85 29.27 10.74ZM35.08 10.57L35.08 3.00L37.04 3.00L37.04 10.35L37.04 10.35Q37.04 12.19 35.31 12.19L35.31 12.19L33.68 12.19L33.68 12.19Q31.95 12.19 31.95 10.35L31.95 10.35L31.95 9.21L33.81 9.21L33.81 10.57L33.81 10.57Q33.81 10.68 33.89 10.77L33.89 10.77L33.89 10.77Q33.96 10.85 34.08 10.85L34.08 10.85L34.82 10.85L34.82 10.85Q34.93 10.85 35.01 10.77L35.01 10.77L35.01 10.77Q35.08 10.68 35.08 10.57L35.08 10.57ZM41.61 5.73L41.61 5.22L43.19 5.22L43.19 12.05L41.61 12.05L41.61 11.55L41.61 11.55Q41.17 12.19 40.17 12.19L40.17 12.19L39.87 12.19L39.87 12.19Q38.14 12.19 38.14 10.35L38.14 10.35L38.14 6.93L38.14 6.93Q38.14 5.08 39.87 5.08L39.87 5.08L40.17 5.08L40.17 5.08Q41.17 5.08 41.61 5.73L41.61 5.73ZM41.31 10.57L41.31 10.57L41.31 6.71L41.31 6.71Q41.31 6.59 41.24 6.51L41.24 6.51L41.24 6.51Q41.16 6.43 41.05 6.43L41.05 6.43L40.28 6.43L40.28 6.43Q40.17 6.43 40.09 6.51L40.09 6.51L40.09 6.51Q40.01 6.59 40.01 6.71L40.01 6.71L40.01 10.57L40.01 10.57Q40.01 10.68 40.09 10.77L40.09 10.77L40.09 10.77Q40.17 10.85 40.28 10.85L40.28 10.85L41.05 10.85L41.05 10.85Q41.16 10.85 41.24 10.77L41.24 10.77L41.24 10.77Q41.31 10.68 41.31 10.57ZM46.34 6.71L46.34 12.05L44.46 12.05L44.46 5.22L46.17 5.22L46.17 5.57L46.17 5.57Q46.61 5.08 47.49 5.08L47.49 5.08L47.78 5.08L47.78 5.08Q49.52 5.08 49.52 6.93L49.52 6.93L49.52 12.05L47.64 12.05L47.64 6.71L47.64 6.71Q47.64 6.59 47.57 6.51L47.57 6.51L47.57 6.51Q47.49 6.43 47.38 6.43L47.38 6.43L46.61 6.43L46.61 6.43Q46.49 6.43 46.42 6.51L46.42 6.51L46.42 6.51Q46.34 6.59 46.34 6.71L46.34 6.71ZM54.26 5.22L55.85 5.22L55.85 12.57L55.85 12.57Q55.85 14.42 54.11 14.42L54.11 14.42L52.71 14.42L52.71 14.42Q50.97 14.42 50.97 12.57L50.97 12.57L50.97 12.35L52.67 12.35L52.67 12.80L52.67 12.80Q52.67 12.91 52.75 12.99L52.75 12.99L52.75 12.99Q52.82 13.08 52.93 13.08L52.93 13.08L53.70 13.08L53.70 13.08Q53.82 13.08 53.89 12.99L53.89 12.99L53.89 12.99Q53.97 12.91 53.97 12.80L53.97 12.80L53.97 11.40L53.97 11.40Q53.54 11.73 52.82 11.73L52.82 11.73L52.53 11.73L52.53 11.73Q50.79 11.73 50.79 9.88L50.79 9.88L50.79 6.93L50.79 6.93Q50.79 5.08 52.53 5.08L52.53 5.08L52.82 5.08L52.82 5.08Q53.83 5.08 54.26 5.73L54.26 5.73L54.26 5.22ZM53.97 10.11L53.97 10.11L53.97 6.71L53.97 6.71Q53.97 6.59 53.89 6.51L53.89 6.51L53.89 6.51Q53.82 6.43 53.70 6.43L53.70 6.43L52.93 6.43L52.93 6.43Q52.82 6.43 52.75 6.51L52.75 6.51L52.75 6.51Q52.67 6.59 52.67 6.71L52.67 6.71L52.67 10.11L52.67 10.11Q52.67 10.22 52.75 10.30L52.75 10.30L52.75 10.30Q52.82 10.39 52.93 10.39L52.93 10.39L53.70 10.39L53.70 10.39Q53.82 10.39 53.89 10.30L53.89 10.30L53.89 10.30Q53.97 10.22 53.97 10.11ZM62.17 6.93L62.17 6.93L62.17 10.35L62.17 10.35Q62.17 12.19 60.44 12.19L60.44 12.19L58.86 12.19L58.86 12.19Q57.12 12.19 57.12 10.35L57.12 10.35L57.12 6.93L57.12 6.93Q57.12 5.08 58.86 5.08L58.86 5.08L60.44 5.08L60.44 5.08Q62.17 5.08 62.17 6.93ZM60.30 10.74L60.30 10.74L60.30 6.52L60.30 6.52Q60.30 6.41 60.22 6.33L60.22 6.33L60.22 6.33Q60.14 6.24 60.03 6.24L60.03 6.24L59.26 6.24L59.26 6.24Q59.15 6.24 59.07 6.33L59.07 6.33L59.07 6.33Q59.00 6.41 59.00 6.52L59.00 6.52L59.00 10.74L59.00 10.74Q59.00 10.85 59.07 10.93L59.07 10.93L59.07 10.93Q59.15 11.02 59.26 11.02L59.26 11.02L60.03 11.02L60.03 11.02Q60.14 11.02 60.22 10.93L60.22 10.93L60.22 10.93Q60.30 10.85 60.30 10.74Z"></path></g><!----><g data-v-423bf9ae="" id="9247710b-1626-409a-aad7-5543215738b6" transform="matrix(1.0845669507980347,0,0,1.0845669507980347,-21.37438201904297,-8.720050811767578)" stroke="none" fill="#059669"><path d="M73.255 20.157c-3.147-.161-5.801 2.265-5.954 5.401-.765 15.668-4.567 19.853-5.716 20.762-.833.661-1.43.612-1.589.583.14.025-.775.059-1.402.079l.456-29.674a7.958 7.958 0 0 0-7.959-7.959 7.959 7.959 0 0 0-7.959 7.959l.681 44.413c-.64-.009-1.488-.024-1.418-.041-.179.043-1.8.384-3.504-.934-1.684-1.304-5.628-6.03-5.898-21.744a5.684 5.684 0 0 0-5.682-5.587l-.1.001a5.684 5.684 0 0 0-5.586 5.781c.267 15.554 3.899 25.952 10.798 30.906 3.359 2.412 6.727 3.009 9.234 3.009.905 0 1.688-.079 2.328-.177l.284 18.562h13.643l.511-33.334c.529.074 1.086.122 1.679.122 2.301 0 5.019-.621 7.599-2.361 6.612-4.456 10.196-14.208 10.957-29.812a5.686 5.686 0 0 0-5.403-5.955z"></path><path d="M43.208 22.375H41.38c-.078 0-.142-.064-.142-.142s.064-.142.142-.142h1.828c.078 0 .142.064.142.142s-.064.142-.142.142z"></path><path d="M43.085 22.295a.14.14 0 0 1-.071-.019l-1.582-.914a.142.142 0 0 1 .142-.246l1.582.914a.142.142 0 0 1-.071.265z"></path><path d="M41.502 23.389a.142.142 0 0 1-.071-.265l1.583-.914a.142.142 0 0 1 .142.246l-1.583.914a.14.14 0 0 1-.071.019zM46.729 10.692l-.946-1.564a.143.143 0 0 1 .048-.195.142.142 0 0 1 .195.048l.945 1.564c.041.066.019.154-.048.195s-.153.019-.194-.048z"></path><path d="M46.734 10.546a.143.143 0 0 1-.021-.07l-.037-1.827a.143.143 0 0 1 .285-.006l.037 1.827a.144.144 0 0 1-.139.146.151.151 0 0 1-.125-.07z"></path><path d="M44.979 9.757a.143.143 0 0 1 .191-.198l1.601.882a.143.143 0 0 1 .056.193.144.144 0 0 1-.193.056l-1.602-.882a.137.137 0 0 1-.053-.051zM29.706 34.143l.638-1.713a.142.142 0 1 1 .266.1l-.638 1.712a.143.143 0 0 1-.183.084.144.144 0 0 1-.083-.183z"></path><path d="M29.824 34.056a.146.146 0 0 1 .042-.06l1.408-1.165a.144.144 0 0 1 .201.02c.05.062.041.15-.019.201l-1.408 1.164a.144.144 0 0 1-.201-.019.145.145 0 0 1-.023-.141z"></path><path d="M29.352 32.19a.142.142 0 0 1 .11-.09c.077-.013.15.04.164.117l.304 1.802a.145.145 0 0 1-.117.165.143.143 0 0 1-.164-.117l-.304-1.803a.134.134 0 0 1 .007-.074zM59.069 17.833h1.828a.142.142 0 1 0 0-.284h-1.828a.143.143 0 0 0-.142.142.143.143 0 0 0 .142.142z"></path><path d="M59.192 17.753a.14.14 0 0 0 .071-.019l1.582-.914a.142.142 0 1 0-.141-.246l-1.583.914a.143.143 0 0 0-.052.194.143.143 0 0 0 .123.071z"></path><path d="M60.774 18.847c.05 0 .099-.025.125-.071a.143.143 0 0 0-.054-.194l-1.583-.914a.142.142 0 0 0-.142.246l1.584.914a.137.137 0 0 0 .07.019zM74.729 20.45l.412-1.78a.142.142 0 0 0-.106-.17.142.142 0 0 0-.171.106l-.411 1.781a.141.141 0 1 0 .276.063z"></path><path d="M74.679 20.312a.122.122 0 0 0-.003-.073l-.533-1.747a.144.144 0 0 0-.178-.095.144.144 0 0 0-.095.178l.534 1.747a.143.143 0 0 0 .178.095.148.148 0 0 0 .097-.105z"></path><path d="M76.1 19.016a.14.14 0 0 0-.041-.137.144.144 0 0 0-.201.008l-1.246 1.337a.14.14 0 0 0 .008.2c.057.054.146.05.2-.006l1.247-1.336a.142.142 0 0 0 .033-.066z"></path><g><path d="M58.664 32.401h1.828a.142.142 0 1 0 0-.284h-1.828c-.078 0-.142.064-.142.142s.064.142.142.142z"></path><path d="M58.787 32.321a.14.14 0 0 0 .071-.019l1.582-.914a.142.142 0 1 0-.141-.246l-1.583.914a.143.143 0 0 0-.052.194.143.143 0 0 0 .123.071z"></path><path d="M60.369 33.415a.144.144 0 0 0 .125-.071.143.143 0 0 0-.054-.194l-1.583-.914a.142.142 0 0 0-.142.246l1.584.914a.134.134 0 0 0 .07.019z"></path></g><g><path d="M58.663 39.775h1.827a.143.143 0 0 0 .143-.142.141.141 0 0 0-.143-.142h-1.827a.143.143 0 0 0-.143.142.144.144 0 0 0 .143.142z"></path><path d="M58.786 39.695a.14.14 0 0 0 .071-.019l1.582-.914a.144.144 0 0 0 .053-.194.142.142 0 0 0-.194-.052l-1.583.914a.143.143 0 0 0-.052.194.143.143 0 0 0 .123.071z"></path><path d="M60.368 40.789a.145.145 0 0 0 .125-.071.143.143 0 0 0-.054-.194l-1.583-.914a.142.142 0 1 0-.142.246l1.584.914a.144.144 0 0 0 .07.019z"></path></g><g><path d="M58.014 67.952h1.827a.143.143 0 0 0 0-.285h-1.827a.143.143 0 0 0-.143.142c0 .079.065.143.143.143z"></path><path d="M58.137 67.872a.151.151 0 0 0 .071-.019l1.582-.914a.143.143 0 0 0 .052-.194.142.142 0 0 0-.194-.052l-1.582.913a.143.143 0 0 0 .071.266z"></path><path d="M59.719 68.966a.145.145 0 0 0 .125-.071.144.144 0 0 0-.054-.194l-1.583-.913a.14.14 0 0 0-.193.052.142.142 0 0 0 .051.194l1.583.914a.147.147 0 0 0 .071.018z"></path></g><g><path d="M33.821 50.298l1.806-.276a.142.142 0 1 0-.043-.281l-1.807.276a.144.144 0 0 0-.119.162.145.145 0 0 0 .163.119z"></path><path d="M33.931 50.2a.154.154 0 0 0 .067-.029l1.426-1.143a.142.142 0 1 0-.178-.221L33.82 49.95a.142.142 0 0 0 .111.25z"></path><path d="M35.66 51.041a.14.14 0 0 0 .112-.088.145.145 0 0 0-.082-.185l-1.703-.663a.143.143 0 0 0-.184.08.144.144 0 0 0 .08.185l1.703.664c.024.01.049.012.074.007z"></path></g><g><path d="M78.081 32.033l1.777.425a.142.142 0 1 0 .066-.276l-1.777-.424a.142.142 0 0 0-.066.275z"></path><path d="M78.22 31.984a.14.14 0 0 0 .073-.002l1.751-.521a.145.145 0 0 0 .096-.177.141.141 0 0 0-.177-.095l-1.751.521a.145.145 0 0 0-.097.177.148.148 0 0 0 .105.097z"></path><path d="M79.504 33.415a.142.142 0 0 0 .132-.241l-1.328-1.256a.142.142 0 0 0-.2.006.141.141 0 0 0 .005.201l1.327 1.257a.156.156 0 0 0 .064.033z"></path></g><g><path d="M74.908 45.434l1.71.646a.145.145 0 0 0 .184-.083.145.145 0 0 0-.083-.184l-1.71-.645a.143.143 0 0 0-.184.083.144.144 0 0 0 .083.183z"></path><path d="M75.053 45.403a.135.135 0 0 0 .072.007l1.804-.296a.142.142 0 0 0 .116-.164.142.142 0 0 0-.162-.117l-1.804.296a.142.142 0 0 0-.026.274z"></path><path d="M76.146 46.985c.046.018.1.011.141-.022.06-.05.07-.139.02-.201l-1.158-1.414a.143.143 0 0 0-.2-.019.141.141 0 0 0-.02.199l1.158 1.415a.137.137 0 0 0 .059.042z"></path></g><g><path d="M43.598 45.817H41.77a.142.142 0 1 1 0-.284h1.828a.142.142 0 1 1 0 .284z"></path><path d="M43.476 45.737a.14.14 0 0 1-.071-.019l-1.583-.914a.142.142 0 0 1 .142-.246l1.583.914a.143.143 0 0 1 .052.194.143.143 0 0 1-.123.071z"></path><path d="M41.893 46.831a.142.142 0 0 1-.071-.265l1.583-.914a.143.143 0 0 1 .194.052.143.143 0 0 1-.052.194l-1.583.914a.14.14 0 0 1-.071.019z"></path></g><g><path d="M21.857 45.398l-1.805.285a.144.144 0 0 1-.163-.119.143.143 0 0 1 .118-.163l1.805-.284a.143.143 0 0 1 .045.281z"></path><path d="M21.723 45.339a.153.153 0 0 1-.073-.008l-1.705-.657a.144.144 0 0 1-.083-.184.143.143 0 0 1 .184-.082l1.706.657a.145.145 0 0 1 .082.185.142.142 0 0 1-.111.089z"></path><path d="M20.33 46.665a.143.143 0 0 1-.111-.251l1.422-1.148a.144.144 0 0 1 .2.021c.049.061.04.15-.021.2l-1.422 1.149a.141.141 0 0 1-.068.029z"></path></g></g><!----></svg>