<svg data-v-423bf9ae="" xmlns="http://www.w3.org/2000/svg" viewBox="0 0 434 111" class="iconLeft"><!----><!----><!----><g data-v-423bf9ae="" id="74ddae47-9b45-4b94-b328-63a6a4e69782" fill="#0F2020" transform="matrix(6.122448921203613,0,0,6.122448921203613,107.71290588378906,20.903778076171875)"><path d="M3.47 5.60L4.72 10.50L3.30 10.50L1.54 4.06L2.91 4.06L2.91 2.25L1.54 2.25L1.54 3.65L1.54 4.06L1.54 6.12L1.54 8.96L1.54 10.50L0 10.50L0 9.48L0 1.22L0 0.70L0.99 0.70L1.54 0.70L3.05 0.70L3.33 0.70L3.33 0.70Q3.77 0.70 4.07 0.98L4.07 0.98L4.07 0.98Q4.38 1.26 4.44 1.68L4.44 1.68L4.45 1.82L4.45 4.48L4.45 4.48Q4.45 4.91 4.17 5.23L4.17 5.23L4.17 5.23Q3.88 5.54 3.47 5.60L3.47 5.60ZM8.86 0.70L8.86 0.70L10.44 10.50L8.88 10.50L7.91 3.70L7.52 6.90L7.52 6.92L7.91 6.92L7.91 8.46L7.27 8.46L6.94 10.50L5.39 10.50L5.71 8.46L5.36 8.46L5.36 6.92L5.96 6.92L6.96 0.70L8.86 0.70ZM14.49 0.70L14.49 0.70L15.47 0.70L15.47 0.70L15.47 10.50L15.47 10.50L13.93 10.50L13.93 10.50L12.53 6.12L12.53 10.50L12.53 10.50L10.99 10.50L10.99 0.70L11.55 0.70L11.55 0.70L12.53 0.70L12.53 0.70L12.53 0.73L13.93 5.35L13.93 0.70L14.49 0.70L14.49 0.70ZM20.83 3.30L19.29 3.30L19.29 2.24L17.92 2.24L17.92 8.97L19.29 8.97L19.29 5.60L18.65 5.60L18.65 4.06L20.83 4.06L20.83 9.41L20.83 9.41Q20.83 9.81 20.57 10.12L20.57 10.12L20.57 10.12Q20.30 10.43 19.89 10.50L19.89 10.50L17.32 10.50L17.32 10.50Q16.91 10.43 16.65 10.12L16.65 10.12L16.65 10.12Q16.38 9.81 16.38 9.41L16.38 9.41L16.38 1.81L16.38 1.81Q16.38 1.40 16.65 1.08L16.65 1.08L16.65 1.08Q16.91 0.77 17.32 0.70L17.32 0.70L19.89 0.70L19.89 0.70Q20.30 0.77 20.57 1.08L20.57 1.08L20.57 1.08Q20.83 1.40 20.83 1.81L20.83 1.81L20.83 3.30ZM22.67 0.70L25.26 0.70L25.26 0.70Q25.65 0.77 25.91 1.08L25.91 1.08L25.91 1.08Q26.18 1.40 26.18 1.81L26.18 1.81L26.18 2.86L26.18 3.28L26.18 3.30L26.18 8.36L26.18 9.41L26.18 9.41Q26.18 9.81 25.91 10.12L25.91 10.12L25.91 10.12Q25.65 10.43 25.26 10.50L25.26 10.50L22.67 10.50L22.67 10.50Q22.27 10.43 22.01 10.12L22.01 10.12L22.01 10.12Q21.74 9.81 21.74 9.41L21.74 9.41L21.74 1.81L21.74 1.81Q21.74 1.40 22.01 1.08L22.01 1.08L22.01 1.08Q22.27 0.77 22.67 0.70L22.67 0.70ZM24.64 3.30L24.64 3.28L24.64 2.86L24.64 2.24L23.28 2.24L23.28 8.97L24.64 8.97L24.64 8.36L24.64 3.30ZM31.54 0.70L31.54 8.78L31.54 9.41L31.54 9.41Q31.54 9.81 31.28 10.12L31.28 10.12L31.28 10.12Q31.01 10.43 30.60 10.50L30.60 10.50L28.03 10.50L28.03 10.50Q27.62 10.43 27.36 10.12L27.36 10.12L27.36 10.12Q27.09 9.81 27.09 9.41L27.09 9.41L27.09 8.36L27.09 7.91L28.63 7.91L28.63 8.36L28.63 8.97L30.00 8.97L30.00 2.24L30.00 0.70L31.54 0.70ZM35.95 0.70L35.95 0.70L37.53 10.50L35.97 10.50L35 3.70L34.61 6.90L34.61 6.92L35 6.92L35 8.46L34.36 8.46L34.03 10.50L32.48 10.50L32.80 8.46L32.45 8.46L32.45 6.92L33.05 6.92L34.05 0.70L35.95 0.70ZM41.58 0.70L41.58 0.70L42.56 0.70L42.56 0.70L42.56 10.50L42.56 10.50L41.02 10.50L41.02 10.50L39.62 6.12L39.62 10.50L39.62 10.50L38.08 10.50L38.08 0.70L38.64 0.70L38.64 0.70L39.62 0.70L39.62 0.70L39.62 0.73L41.02 5.35L41.02 0.70L41.58 0.70L41.58 0.70ZM47.92 3.30L46.38 3.30L46.38 2.24L45.01 2.24L45.01 8.97L46.38 8.97L46.38 5.60L45.74 5.60L45.74 4.06L47.92 4.06L47.92 9.41L47.92 9.41Q47.92 9.81 47.66 10.12L47.66 10.12L47.66 10.12Q47.39 10.43 46.98 10.50L46.98 10.50L44.41 10.50L44.41 10.50Q44.00 10.43 43.74 10.12L43.74 10.12L43.74 10.12Q43.47 9.81 43.47 9.41L43.47 9.41L43.47 1.81L43.47 1.81Q43.47 1.40 43.74 1.08L43.74 1.08L43.74 1.08Q44.00 0.77 44.41 0.70L44.41 0.70L46.98 0.70L46.98 0.70Q47.39 0.77 47.66 1.08L47.66 1.08L47.66 1.08Q47.92 1.40 47.92 1.81L47.92 1.81L47.92 3.30ZM49.76 0.70L52.35 0.70L52.35 0.70Q52.74 0.77 53.00 1.08L53.00 1.08L53.00 1.08Q53.27 1.40 53.27 1.81L53.27 1.81L53.27 2.86L53.27 3.28L53.27 3.30L53.27 8.36L53.27 9.41L53.27 9.41Q53.27 9.81 53.00 10.12L53.00 10.12L53.00 10.12Q52.74 10.43 52.35 10.50L52.35 10.50L49.76 10.50L49.76 10.50Q49.36 10.43 49.10 10.12L49.10 10.12L49.10 10.12Q48.83 9.81 48.83 9.41L48.83 9.41L48.83 1.81L48.83 1.81Q48.83 1.40 49.10 1.08L49.10 1.08L49.10 1.08Q49.36 0.77 49.76 0.70L49.76 0.70ZM51.73 3.30L51.73 3.28L51.73 2.86L51.73 2.24L50.37 2.24L50.37 8.97L51.73 8.97L51.73 8.36L51.73 3.30Z"></path></g><!----><g data-v-423bf9ae="" id="cdf3a9e4-cf97-4e2b-a333-fbd2604ac632" transform="matrix(1.107444405555725,0,0,1.107444405555725,-10.919941902160645,0.7927806377410889)" stroke="none" fill="#059669"><path d="M85 48.323V36.726l3.843-2.051-4.259-2.066c-.133-2.119-.769-5.797-3.038-8.182-1.441-1.513-3.206-2.28-5.442-2.28-.082 0-8.104.138-8.104 12.038v9.712c.041.468-.214 1.721-.973 2.549-.508.553-1.315.821-2.398.821-1.086 0-2.101-.268-2.607-.821-.76-.829-1.022-2.228-1.022-2.686v-1.798l4.332-2.054-3.995-2.054.062-16.829 3.903-2.051L61 16.922v-4.719C61 .303 49.569.165 49.452.165c-4.035 0-7.062 1.181-9.225 3.511-2.135 2.302-2.693 5.158-2.858 6.944l-3.808 2.074L38 14.745V30.53l-4.102 2.051L38 34.632v19.743c.041.471-.479 1.709-1.238 2.536-.507.553-1.359.822-2.443.822s-1.897-.27-2.403-.822c-.76-.827-.84-2.225-.801-2.684l-.008-1.8 4.103-2.054-4.107-2.052.002-3.671c0-11.9-8.124-12.038-8.206-12.038-2.235 0-4.276.767-5.718 2.28C13.905 38.332 14 44.467 14 44.65v.533l-4.102 2.051L14 49.285V61.93l-3.925 2.051 4.401 2.156c.283 1.125 1.291 2.678 2.796 4.26C20.977 74.293 28 76.362 38 76.56v6.305l-4.102 2.05L38 86.965v9.984l.611.418c3.601 1.638 7.212 2.468 11.04 2.468 6.535 0 10.661-2.421 10.846-2.523l.503-.451v-4.663l4.101-2.05L61 88.098V76.499l4.101-2.052L61 72.397v-6.304c11-.192 17.93-2.326 21.396-6.352C84.64 57.138 85 54.647 85 53.982v-1.558l4.101-2.051L85 48.323z"></path></g><!----></svg>