<svg data-v-423bf9ae="" xmlns="http://www.w3.org/2000/svg" viewBox="0 0 457 90" class="iconLeft"><!----><!----><!----><g data-v-423bf9ae="" id="8fbccaef-8f90-4dab-b358-263be7991750" fill="#000000" transform="matrix(5.352364540100098,0,0,5.352364540100098,114.96475219726562,-9.67440414428711)"><path d="M6.82 6.73L6.82 6.73L6.82 6.73Q6.82 7.42 6.31 8.08L6.31 8.08L6.31 8.08Q5.79 8.74 4.86 9.07L4.86 9.07L4.86 9.08L6.10 10.79L6.10 10.79Q6.36 11.15 6.47 11.30L6.47 11.30L6.47 11.30Q6.58 11.45 6.78 11.70L6.78 11.70L6.78 11.70Q6.97 11.94 7.09 12.04L7.09 12.04L7.09 12.04Q7.20 12.15 7.37 12.29L7.37 12.29L7.37 12.29Q7.55 12.43 7.71 12.51L7.71 12.51L7.71 12.51Q7.88 12.58 8.09 12.65L8.09 12.65L8.32 12.71L8.22 13.19L8.22 13.19Q7.83 13.32 7.40 13.32L7.40 13.32L7.40 13.32Q6.64 13.32 6.05 12.82L6.05 12.82L6.05 12.82Q5.46 12.33 4.96 11.44L4.96 11.44L3.88 9.50L2.69 9.50L2.69 12.31L3.98 12.61L3.91 13.17L0.16 13.17L0.23 12.67L1.38 12.35L1.38 5.65L0.21 5.44L0.27 4.92L0.27 4.92Q2.28 4.61 3.40 4.61L3.40 4.61L3.40 4.61Q4.18 4.61 4.79 4.72L4.79 4.72L4.79 4.72Q5.40 4.83 5.87 5.07L5.87 5.07L5.87 5.07Q6.33 5.31 6.58 5.73L6.58 5.73L6.58 5.73Q6.82 6.14 6.82 6.73ZM2.69 8.88L4.04 8.88L4.04 8.88Q4.61 8.69 5.01 8.24L5.01 8.24L5.01 8.24Q5.41 7.79 5.41 7.11L5.41 7.11L5.41 7.11Q5.41 6.25 4.90 5.71L4.90 5.71L4.90 5.71Q4.40 5.17 3.51 5.17L3.51 5.17L3.51 5.17Q3.29 5.17 3.09 5.19L3.09 5.19L3.09 5.19Q2.88 5.20 2.79 5.20L2.79 5.20L2.69 5.21L2.69 8.88ZM11.89 11.89L11.89 10.25L11.89 10.25Q10.83 10.45 10.39 10.82L10.39 10.82L10.39 10.82Q9.94 11.18 9.94 11.70L9.94 11.70L9.94 11.70Q9.94 12.00 10.15 12.25L10.15 12.25L10.15 12.25Q10.36 12.50 10.71 12.50L10.71 12.50L10.71 12.50Q11.03 12.50 11.36 12.30L11.36 12.30L11.36 12.30Q11.70 12.11 11.89 11.89L11.89 11.89ZM13.09 13.30L13.09 13.30L13.09 13.30Q12.55 13.30 12.29 13.02L12.29 13.02L12.29 13.02Q12.03 12.74 12.03 12.38L12.03 12.38L12.03 12.28L11.95 12.28L11.95 12.28Q11.87 12.43 11.73 12.60L11.73 12.60L11.73 12.60Q11.60 12.76 11.38 12.94L11.38 12.94L11.38 12.94Q11.16 13.12 10.82 13.23L10.82 13.23L10.82 13.23Q10.48 13.34 10.08 13.34L10.08 13.34L10.08 13.34Q9.52 13.34 9.13 12.98L9.13 12.98L9.13 12.98Q8.74 12.63 8.74 12.02L8.74 12.02L8.74 12.02Q8.74 11.63 8.92 11.28L8.92 11.28L8.92 11.28Q9.11 10.92 9.47 10.62L9.47 10.62L9.47 10.62Q9.84 10.32 10.47 10.12L10.47 10.12L10.47 10.12Q11.09 9.91 11.89 9.86L11.89 9.86L11.89 9.48L11.89 9.48Q11.89 9.11 11.84 8.80L11.84 8.80L11.84 8.80Q11.79 8.50 11.65 8.23L11.65 8.23L11.65 8.23Q11.52 7.96 11.28 7.82L11.28 7.82L11.28 7.82Q11.03 7.68 10.68 7.68L10.68 7.68L10.68 7.68Q10.47 7.68 10.34 7.76L10.34 7.76L10.34 7.76Q10.20 7.84 10.13 8.03L10.13 8.03L10.13 8.03Q10.06 8.21 10.02 8.40L10.02 8.40L10.02 8.40Q9.99 8.60 9.95 8.91L9.95 8.91L9.95 8.91Q9.94 9.06 9.93 9.13L9.93 9.13L9.93 9.13Q9.78 9.13 9.68 9.12L9.68 9.12L9.68 9.12Q9.58 9.11 9.44 9.07L9.44 9.07L9.44 9.07Q9.30 9.04 9.20 8.97L9.20 8.97L9.20 8.97Q9.11 8.89 9.04 8.75L9.04 8.75L9.04 8.75Q8.98 8.61 8.98 8.42L8.98 8.42L8.98 8.42Q8.98 8.07 9.37 7.73L9.37 7.73L9.37 7.73Q9.75 7.39 10.30 7.20L10.30 7.20L10.30 7.20Q10.83 7.01 11.31 7.01L11.31 7.01L11.31 7.01Q12.22 7.01 12.61 7.52L12.61 7.52L12.61 7.52Q13.01 8.03 13.01 9.12L13.01 9.12L13.01 11.61L13.01 11.61Q13.01 12.09 13.15 12.26L13.15 12.26L13.15 12.26Q13.30 12.44 13.77 12.52L13.77 12.52L14.10 12.58L14.03 13.16L14.03 13.16Q13.92 13.17 13.75 13.21L13.75 13.21L13.75 13.21Q13.58 13.25 13.42 13.28L13.42 13.28L13.42 13.28Q13.27 13.30 13.09 13.30ZM20.45 8.96L20.45 8.96L20.45 12.39L21.44 12.63L21.37 13.17L18.29 13.17L18.37 12.68L19.30 12.39L19.30 9.23L19.30 9.23Q19.30 8.59 18.98 8.28L18.98 8.28L18.98 8.28Q18.66 7.96 18.12 7.96L18.12 7.96L18.12 7.96Q17.75 7.96 17.39 8.12L17.39 8.12L17.39 8.12Q17.04 8.28 16.78 8.56L16.78 8.56L16.78 12.39L17.79 12.63L17.70 13.17L14.53 13.17L14.59 12.68L15.62 12.39L15.62 8.24L14.57 7.89L14.64 7.37L16.67 7.10L16.80 7.23L16.67 8.10L16.74 8.10L16.74 8.10Q17.12 7.64 17.66 7.34L17.66 7.34L17.66 7.34Q18.20 7.03 18.81 7.03L18.81 7.03L18.81 7.03Q19.61 7.03 20.03 7.54L20.03 7.54L20.03 7.54Q20.45 8.04 20.45 8.96ZM23.34 9.02L23.34 9.02L23.34 9.02Q23.34 9.69 23.70 10.13L23.70 10.13L23.70 10.13Q24.06 10.58 24.47 10.58L24.47 10.58L24.47 10.58Q24.94 10.58 25.21 10.24L25.21 10.24L25.21 10.24Q25.48 9.91 25.48 9.21L25.48 9.21L25.48 9.21Q25.48 8.82 25.35 8.45L25.35 8.45L25.35 8.45Q25.23 8.09 24.97 7.82L24.97 7.82L24.97 7.82Q24.71 7.55 24.37 7.55L24.37 7.55L24.37 7.55Q23.86 7.55 23.60 7.94L23.60 7.94L23.60 7.94Q23.34 8.33 23.34 9.02ZM24.57 12.14L24.57 12.14L25.51 12.14L25.51 12.14Q25.94 12.14 26.25 12.19L26.25 12.19L26.25 12.19Q26.55 12.24 26.83 12.38L26.83 12.38L26.83 12.38Q27.11 12.52 27.26 12.81L27.26 12.81L27.26 12.81Q27.41 13.09 27.41 13.52L27.41 13.52L27.41 13.52Q27.41 14.10 26.95 14.64L26.95 14.64L26.95 14.64Q26.49 15.17 25.75 15.49L25.75 15.49L25.75 15.49Q25.02 15.82 24.25 15.82L24.25 15.82L24.25 15.82Q23.75 15.82 23.33 15.74L23.33 15.74L23.33 15.74Q22.91 15.66 22.55 15.49L22.55 15.49L22.55 15.49Q22.19 15.32 21.98 15.01L21.98 15.01L21.98 15.01Q21.78 14.70 21.78 14.28L21.78 14.28L21.78 14.28Q21.78 14.10 21.87 13.92L21.87 13.92L21.87 13.92Q21.96 13.75 22.06 13.63L22.06 13.63L22.06 13.63Q22.16 13.51 22.35 13.38L22.35 13.38L22.35 13.38Q22.54 13.24 22.63 13.19L22.63 13.19L22.63 13.19Q22.71 13.15 22.88 13.05L22.88 13.05L22.88 13.00L22.88 13.00Q22.56 12.84 22.39 12.60L22.39 12.60L22.39 12.60Q22.22 12.35 22.22 12.05L22.22 12.05L22.22 12.05Q22.22 11.79 22.59 11.44L22.59 11.44L22.59 11.44Q22.96 11.10 23.37 10.94L23.37 10.94L23.37 10.88L23.37 10.88Q23.03 10.79 22.64 10.28L22.64 10.28L22.64 10.28Q22.24 9.77 22.24 9.14L22.24 9.14L22.24 9.14Q22.24 8.59 22.57 8.10L22.57 8.10L22.57 8.10Q22.90 7.62 23.43 7.33L23.43 7.33L23.43 7.33Q23.96 7.04 24.53 7.04L24.53 7.04L24.53 7.04Q25.37 7.04 25.97 7.47L25.97 7.47L27.44 7.37L27.58 7.53L27.32 8.29L27.20 8.29L26.35 8.01L26.35 8.12L26.35 8.12Q26.59 8.62 26.59 9.07L26.59 9.07L26.59 9.07Q26.59 9.52 26.38 9.92L26.38 9.92L26.38 9.92Q26.16 10.31 25.82 10.56L25.82 10.56L25.82 10.56Q25.48 10.81 25.08 10.96L25.08 10.96L25.08 10.96Q24.67 11.11 24.28 11.11L24.28 11.11L24.28 11.11Q23.91 11.11 23.67 11.04L23.67 11.04L23.67 11.04Q23.32 11.41 23.32 11.65L23.32 11.65L23.32 11.65Q23.32 11.81 23.40 11.90L23.40 11.90L23.40 11.90Q23.49 12.00 23.77 12.07L23.77 12.07L23.77 12.07Q24.06 12.14 24.57 12.14ZM24.53 13.15L23.34 13.15L23.34 13.15Q23.32 13.16 23.30 13.17L23.30 13.17L23.30 13.17Q23.28 13.18 23.22 13.23L23.22 13.23L23.22 13.23Q23.16 13.29 23.11 13.37L23.11 13.37L23.11 13.37Q23.06 13.45 23.03 13.59L23.03 13.59L23.03 13.59Q22.99 13.73 22.99 13.91L22.99 13.91L22.99 13.91Q22.99 15.08 24.63 15.08L24.63 15.08L24.63 15.08Q24.98 15.08 25.26 15.02L25.26 15.02L25.26 15.02Q25.55 14.95 25.77 14.81L25.77 14.81L25.77 14.81Q25.99 14.68 26.12 14.43L26.12 14.43L26.12 14.43Q26.24 14.19 26.24 13.86L26.24 13.86L26.24 13.86Q26.24 13.42 25.87 13.29L25.87 13.29L25.87 13.29Q25.50 13.15 24.53 13.15L24.53 13.15ZM29.31 9.78L29.31 9.78L29.31 9.78Q29.31 10.33 29.41 10.83L29.41 10.83L29.41 10.83Q29.51 11.33 29.72 11.75L29.72 11.75L29.72 11.75Q29.92 12.18 30.29 12.43L30.29 12.43L30.29 12.43Q30.65 12.69 31.13 12.69L31.13 12.69L31.13 12.69Q31.59 12.69 31.92 12.39L31.92 12.39L31.92 12.39Q32.25 12.09 32.40 11.66L32.40 11.66L32.40 11.66Q32.55 11.22 32.55 10.72L32.55 10.72L32.55 10.72Q32.55 10.18 32.45 9.67L32.45 9.67L32.45 9.67Q32.35 9.17 32.15 8.72L32.15 8.72L32.15 8.72Q31.95 8.26 31.60 7.99L31.60 7.99L31.60 7.99Q31.24 7.72 30.78 7.72L30.78 7.72L30.78 7.72Q30.28 7.72 29.94 8.02L29.94 8.02L29.94 8.02Q29.60 8.31 29.45 8.76L29.45 8.76L29.45 8.76Q29.31 9.21 29.31 9.78ZM33.76 10.16L33.76 10.16L33.76 10.16Q33.76 11.09 33.38 11.83L33.38 11.83L33.38 11.83Q33.00 12.56 32.34 12.95L32.34 12.95L32.34 12.95Q31.69 13.35 30.90 13.35L30.90 13.35L30.90 13.35Q29.59 13.35 28.84 12.49L28.84 12.49L28.84 12.49Q28.09 11.62 28.09 10.26L28.09 10.26L28.09 10.26Q28.09 9.51 28.34 8.88L28.34 8.88L28.34 8.88Q28.59 8.25 29.00 7.85L29.00 7.85L29.00 7.85Q29.42 7.44 29.96 7.22L29.96 7.22L29.96 7.22Q30.49 7 31.06 7L31.06 7L31.06 7Q32.31 7 33.04 7.86L33.04 7.86L33.04 7.86Q33.76 8.73 33.76 10.16ZM34.36 15.40L34.36 15.40L33.99 14.80L33.99 14.80Q34.82 14.01 35.21 13.32L35.21 13.32L35.21 13.32Q35.60 12.62 35.60 11.83L35.60 11.83L35.61 5.48L34.37 5.19L34.44 4.67L38.17 4.67L38.10 5.19L36.93 5.46L36.92 10.54L36.92 10.54Q36.91 11.40 36.83 12.01L36.83 12.01L36.83 12.01Q36.75 12.62 36.59 13.08L36.59 13.08L36.59 13.08Q36.42 13.55 36.10 13.95L36.10 13.95L36.10 13.95Q35.77 14.34 35.38 14.66L35.38 14.66L35.38 14.66Q34.99 14.98 34.36 15.40ZM41.85 11.89L41.85 10.25L41.85 10.25Q40.79 10.45 40.34 10.82L40.34 10.82L40.34 10.82Q39.89 11.18 39.89 11.70L39.89 11.70L39.89 11.70Q39.89 12.00 40.10 12.25L40.10 12.25L40.10 12.25Q40.31 12.50 40.67 12.50L40.67 12.50L40.67 12.50Q40.99 12.50 41.32 12.30L41.32 12.30L41.32 12.30Q41.65 12.11 41.85 11.89L41.85 11.89ZM43.05 13.30L43.05 13.30L43.05 13.30Q42.51 13.30 42.25 13.02L42.25 13.02L42.25 13.02Q41.99 12.74 41.99 12.38L41.99 12.38L41.99 12.28L41.90 12.28L41.90 12.28Q41.82 12.43 41.69 12.60L41.69 12.60L41.69 12.60Q41.56 12.76 41.33 12.94L41.33 12.94L41.33 12.94Q41.11 13.12 40.77 13.23L40.77 13.23L40.77 13.23Q40.43 13.34 40.04 13.34L40.04 13.34L40.04 13.34Q39.47 13.34 39.08 12.98L39.08 12.98L39.08 12.98Q38.70 12.63 38.70 12.02L38.70 12.02L38.70 12.02Q38.70 11.63 38.88 11.28L38.88 11.28L38.88 11.28Q39.06 10.92 39.43 10.62L39.43 10.62L39.43 10.62Q39.80 10.32 40.42 10.12L40.42 10.12L40.42 10.12Q41.04 9.91 41.85 9.86L41.85 9.86L41.85 9.48L41.85 9.48Q41.85 9.11 41.79 8.80L41.79 8.80L41.79 8.80Q41.74 8.50 41.61 8.23L41.61 8.23L41.61 8.23Q41.47 7.96 41.23 7.82L41.23 7.82L41.23 7.82Q40.99 7.68 40.64 7.68L40.64 7.68L40.64 7.68Q40.43 7.68 40.29 7.76L40.29 7.76L40.29 7.76Q40.15 7.84 40.08 8.03L40.08 8.03L40.08 8.03Q40.01 8.21 39.98 8.40L39.98 8.40L39.98 8.40Q39.94 8.60 39.91 8.91L39.91 8.91L39.91 8.91Q39.89 9.06 39.88 9.13L39.88 9.13L39.88 9.13Q39.74 9.13 39.64 9.12L39.64 9.12L39.64 9.12Q39.54 9.11 39.40 9.07L39.40 9.07L39.40 9.07Q39.25 9.04 39.16 8.97L39.16 8.97L39.16 8.97Q39.07 8.89 39.00 8.75L39.00 8.75L39.00 8.75Q38.93 8.61 38.93 8.42L38.93 8.42L38.93 8.42Q38.93 8.07 39.32 7.73L39.32 7.73L39.32 7.73Q39.71 7.39 40.26 7.20L40.26 7.20L40.26 7.20Q40.79 7.01 41.27 7.01L41.27 7.01L41.27 7.01Q42.17 7.01 42.57 7.52L42.57 7.52L42.57 7.52Q42.96 8.03 42.96 9.12L42.96 9.12L42.96 11.61L42.96 11.61Q42.96 12.09 43.11 12.26L43.11 12.26L43.11 12.26Q43.25 12.44 43.72 12.52L43.72 12.52L44.06 12.58L43.98 13.16L43.98 13.16Q43.87 13.17 43.70 13.21L43.70 13.21L43.70 13.21Q43.53 13.25 43.38 13.28L43.38 13.28L43.38 13.28Q43.22 13.30 43.05 13.30ZM50.41 8.96L50.41 8.96L50.41 12.39L51.39 12.63L51.32 13.17L48.24 13.17L48.32 12.68L49.26 12.39L49.26 9.23L49.26 9.23Q49.26 8.59 48.94 8.28L48.94 8.28L48.94 8.28Q48.61 7.96 48.08 7.96L48.08 7.96L48.08 7.96Q47.70 7.96 47.35 8.12L47.35 8.12L47.35 8.12Q46.99 8.28 46.73 8.56L46.73 8.56L46.73 12.39L47.74 12.63L47.65 13.17L44.48 13.17L44.55 12.68L45.58 12.39L45.58 8.24L44.53 7.89L44.60 7.37L46.63 7.10L46.75 7.23L46.63 8.10L46.70 8.10L46.70 8.10Q47.08 7.64 47.62 7.34L47.62 7.34L47.62 7.34Q48.16 7.03 48.76 7.03L48.76 7.03L48.76 7.03Q49.56 7.03 49.98 7.54L49.98 7.54L49.98 7.54Q50.41 8.04 50.41 8.96ZM53.29 9.02L53.29 9.02L53.29 9.02Q53.29 9.69 53.66 10.13L53.66 10.13L53.66 10.13Q54.02 10.58 54.43 10.58L54.43 10.58L54.43 10.58Q54.90 10.58 55.17 10.24L55.17 10.24L55.17 10.24Q55.43 9.91 55.43 9.21L55.43 9.21L55.43 9.21Q55.43 8.82 55.31 8.45L55.31 8.45L55.31 8.45Q55.19 8.09 54.93 7.82L54.93 7.82L54.93 7.82Q54.67 7.55 54.33 7.55L54.33 7.55L54.33 7.55Q53.81 7.55 53.55 7.94L53.55 7.94L53.55 7.94Q53.29 8.33 53.29 9.02ZM54.52 12.14L54.52 12.14L55.47 12.14L55.47 12.14Q55.90 12.14 56.20 12.19L56.20 12.19L56.20 12.19Q56.51 12.24 56.79 12.38L56.79 12.38L56.79 12.38Q57.07 12.52 57.21 12.81L57.21 12.81L57.21 12.81Q57.36 13.09 57.36 13.52L57.36 13.52L57.36 13.52Q57.36 14.10 56.90 14.64L56.90 14.64L56.90 14.64Q56.44 15.17 55.71 15.49L55.71 15.49L55.71 15.49Q54.97 15.82 54.21 15.82L54.21 15.82L54.21 15.82Q53.71 15.82 53.29 15.74L53.29 15.74L53.29 15.74Q52.87 15.66 52.51 15.49L52.51 15.49L52.51 15.49Q52.14 15.32 51.94 15.01L51.94 15.01L51.94 15.01Q51.73 14.70 51.73 14.28L51.73 14.28L51.73 14.28Q51.73 14.10 51.83 13.92L51.83 13.92L51.83 13.92Q51.92 13.75 52.02 13.63L52.02 13.63L52.02 13.63Q52.12 13.51 52.31 13.38L52.31 13.38L52.31 13.38Q52.50 13.24 52.58 13.19L52.58 13.19L52.58 13.19Q52.66 13.15 52.83 13.05L52.83 13.05L52.83 13.00L52.83 13.00Q52.51 12.84 52.35 12.60L52.35 12.60L52.35 12.60Q52.18 12.35 52.18 12.05L52.18 12.05L52.18 12.05Q52.18 11.79 52.54 11.44L52.54 11.44L52.54 11.44Q52.91 11.10 53.32 10.94L53.32 10.94L53.32 10.88L53.32 10.88Q52.99 10.79 52.59 10.28L52.59 10.28L52.59 10.28Q52.20 9.77 52.20 9.14L52.20 9.14L52.20 9.14Q52.20 8.59 52.53 8.10L52.53 8.10L52.53 8.10Q52.86 7.62 53.39 7.33L53.39 7.33L53.39 7.33Q53.92 7.04 54.48 7.04L54.48 7.04L54.48 7.04Q55.32 7.04 55.92 7.47L55.92 7.47L57.39 7.37L57.53 7.53L57.27 8.29L57.16 8.29L56.31 8.01L56.31 8.12L56.31 8.12Q56.55 8.62 56.55 9.07L56.55 9.07L56.55 9.07Q56.55 9.52 56.33 9.92L56.33 9.92L56.33 9.92Q56.12 10.31 55.78 10.56L55.78 10.56L55.78 10.56Q55.44 10.81 55.03 10.96L55.03 10.96L55.03 10.96Q54.63 11.11 54.24 11.11L54.24 11.11L54.24 11.11Q53.86 11.11 53.62 11.04L53.62 11.04L53.62 11.04Q53.27 11.41 53.27 11.65L53.27 11.65L53.27 11.65Q53.27 11.81 53.36 11.90L53.36 11.90L53.36 11.90Q53.44 12.00 53.73 12.07L53.73 12.07L53.73 12.07Q54.01 12.14 54.52 12.14ZM54.48 13.15L53.29 13.15L53.29 13.15Q53.28 13.16 53.26 13.17L53.26 13.17L53.26 13.17Q53.23 13.18 53.17 13.23L53.17 13.23L53.17 13.23Q53.12 13.29 53.07 13.37L53.07 13.37L53.07 13.37Q53.02 13.45 52.98 13.59L52.98 13.59L52.98 13.59Q52.94 13.73 52.94 13.91L52.94 13.91L52.94 13.91Q52.94 15.08 54.58 15.08L54.58 15.08L54.58 15.08Q54.93 15.08 55.22 15.02L55.22 15.02L55.22 15.02Q55.50 14.95 55.72 14.81L55.72 14.81L55.72 14.81Q55.95 14.68 56.07 14.43L56.07 14.43L56.07 14.43Q56.20 14.19 56.20 13.86L56.20 13.86L56.20 13.86Q56.20 13.42 55.83 13.29L55.83 13.29L55.83 13.29Q55.46 13.15 54.48 13.15L54.48 13.15ZM59.26 9.78L59.26 9.78L59.26 9.78Q59.26 10.33 59.36 10.83L59.36 10.83L59.36 10.83Q59.47 11.33 59.67 11.75L59.67 11.75L59.67 11.75Q59.88 12.18 60.24 12.43L60.24 12.43L60.24 12.43Q60.61 12.69 61.09 12.69L61.09 12.69L61.09 12.69Q61.54 12.69 61.88 12.39L61.88 12.39L61.88 12.39Q62.21 12.09 62.35 11.66L62.35 11.66L62.35 11.66Q62.50 11.22 62.50 10.72L62.50 10.72L62.50 10.72Q62.50 10.18 62.40 9.67L62.40 9.67L62.40 9.67Q62.30 9.17 62.10 8.72L62.10 8.72L62.10 8.72Q61.91 8.26 61.55 7.99L61.55 7.99L61.55 7.99Q61.20 7.72 60.73 7.72L60.73 7.72L60.73 7.72Q60.24 7.72 59.90 8.02L59.90 8.02L59.90 8.02Q59.55 8.31 59.41 8.76L59.41 8.76L59.41 8.76Q59.26 9.21 59.26 9.78ZM63.72 10.16L63.72 10.16L63.72 10.16Q63.72 11.09 63.33 11.83L63.33 11.83L63.33 11.83Q62.95 12.56 62.30 12.95L62.30 12.95L62.30 12.95Q61.65 13.35 60.85 13.35L60.85 13.35L60.85 13.35Q59.54 13.35 58.79 12.49L58.79 12.49L58.79 12.49Q58.04 11.62 58.04 10.26L58.04 10.26L58.04 10.26Q58.04 9.51 58.29 8.88L58.29 8.88L58.29 8.88Q58.54 8.25 58.96 7.85L58.96 7.85L58.96 7.85Q59.38 7.44 59.91 7.22L59.91 7.22L59.91 7.22Q60.44 7 61.02 7L61.02 7L61.02 7Q62.27 7 62.99 7.86L62.99 7.86L62.99 7.86Q63.72 8.73 63.72 10.16Z"></path></g><!----><g data-v-423bf9ae="" id="efbacfee-53d9-4f10-9a44-9037f0ae29b1" transform="matrix(2.994410514831543,0,0,2.994410514831543,0.0894317626953125,-1.938568115234375)" stroke="none" fill="#059669"><path d="M17.572 23.933l4.106 7.095L32 13.189h-8.981V7.582L11.51.972 0 7.582v13.222l11.51 6.611 6.062-3.482zm10.96-8.744l-6.855 11.846-6.855-11.846h13.71z"></path></g><!----></svg>