<svg data-v-423bf9ae="" xmlns="http://www.w3.org/2000/svg" viewBox="0 0 340.11591887853064 60" class="font"><!----><!----><!----><g data-v-423bf9ae="" id="984dc61b-bf4a-4473-a15c-00f48153dc95" fill="black" transform="matrix(5.797101020812988,0,0,5.797101020812988,-2.572851371951401e-7,-17.1014461517334)"><path d="M4.79 13.30L4.28 13.30L4.28 10.25C4.28 9.56 4.09 9.02 3.68 8.61C3.51 8.46 3.32 8.33 3.09 8.23C3.88 7.94 4.27 7.17 4.27 5.92C4.27 4.26 3.61 3.49 2.14 3.49L0 3.49L0 2.98L2.14 2.98C3.92 2.98 4.76 4.00 4.76 5.92C4.76 6.87 4.55 7.60 4.14 8.09C4.13 8.11 4.10 8.13 4.09 8.16C4.06 8.19 4.03 8.22 4.00 8.23C4.51 8.72 4.79 9.39 4.79 10.25ZM0 3.81L0.49 3.81L0.49 13.30L0 13.30ZM0.83 8.05L0.83 3.81L2.14 3.81C3.42 3.81 3.93 4.42 3.93 5.92C3.93 7.43 3.42 8.05 2.14 8.05ZM1.32 4.31L1.32 7.56L2.14 7.56C2.49 7.56 2.74 7.52 2.88 7.43C3.01 7.35 3.09 7.28 3.14 7.24C3.35 6.97 3.44 6.54 3.44 5.92C3.44 5.24 3.33 4.83 3.12 4.59C2.90 4.37 2.58 4.31 2.14 4.31ZM3.96 13.30L3.46 13.30L3.46 10.25C3.46 9.34 3.02 8.89 2.14 8.89L1.32 8.89L1.32 13.30L0.83 13.30L0.83 8.39L2.14 8.39C3.30 8.39 3.96 9.06 3.96 10.25ZM8.37 2.98L9.42 2.98L11.82 13.30L11.30 13.30L9.04 3.57L8.74 3.57L6.48 13.30L5.98 13.30ZM8.89 4.38L10.09 9.60L7.67 9.60ZM8.89 6.58L8.30 9.10L9.48 9.10ZM7.34 13.30L6.82 13.30L7.60 9.93L10.18 9.93L10.96 13.30L10.46 13.30L9.79 10.43L7.99 10.43ZM16.53 2.95L16.53 11.76L13.19 3.46L12.89 3.46L12.89 13.27L12.40 13.27L12.40 2.95L13.51 2.95L16.03 9.20L16.03 2.95ZM16.58 12.77L16.86 12.77L16.86 2.95L17.36 2.95L17.36 13.27L16.24 13.27L13.72 7.03L13.72 13.27L13.23 13.27L13.23 4.47ZM23.27 6.55L22.78 6.55L22.78 5.89C22.78 4.31 22.13 3.47 20.80 3.47C19.50 3.47 18.84 4.31 18.84 5.89L18.84 10.35C18.84 11.96 19.52 12.80 20.80 12.80C22.11 12.80 22.78 11.96 22.78 10.35L22.78 8.74L20.34 8.74L20.34 8.25L23.27 8.25L23.27 10.35C23.27 11.27 23.07 11.98 22.67 12.47C22.37 12.85 21.81 13.29 20.80 13.29C19.80 13.29 19.25 12.85 18.96 12.47C18.55 11.98 18.35 11.27 18.35 10.35L18.35 5.89C18.35 4.06 19.18 2.97 20.80 2.97C22.44 2.97 23.27 4.06 23.27 5.89ZM22.44 6.55L21.94 6.55L21.94 5.89C21.94 5.15 21.80 4.76 21.59 4.54C21.36 4.33 21.08 4.30 20.80 4.30C20.52 4.30 20.24 4.33 20.03 4.54C19.81 4.76 19.67 5.15 19.67 5.89L19.67 10.35C19.67 11.17 19.85 11.56 20.09 11.76C20.33 11.96 20.59 11.97 20.80 11.97C21.01 11.97 21.29 11.96 21.53 11.76C21.76 11.56 21.94 11.17 21.94 10.35L21.94 9.56L20.34 9.56L20.34 9.07L22.44 9.07L22.44 10.35C22.44 11.09 22.30 11.62 22.02 11.96C21.77 12.29 21.36 12.46 20.80 12.46C20.26 12.46 19.85 12.29 19.60 11.96C19.32 11.62 19.18 11.09 19.18 10.35L19.18 5.89C19.18 4.44 19.73 3.79 20.80 3.79C21.88 3.79 22.44 4.44 22.44 5.89ZM29.04 10.33C29.04 11.26 28.84 11.96 28.45 12.45C28.29 12.63 28.10 12.84 27.79 12.99C27.48 13.16 27.09 13.27 26.59 13.27C25.58 13.27 25.02 12.82 24.72 12.45C24.33 11.96 24.14 11.26 24.14 10.33L24.14 5.88C24.14 4.97 24.33 4.27 24.72 3.77C25.02 3.39 25.58 2.95 26.59 2.95C27.59 2.95 28.15 3.39 28.45 3.77C28.84 4.27 29.04 4.97 29.04 5.88ZM28.55 5.88C28.55 4.30 27.87 3.44 26.59 3.44C25.30 3.44 24.63 4.30 24.63 5.88L24.63 10.33C24.63 11.91 25.31 12.78 26.59 12.78C27.86 12.78 28.55 11.91 28.55 10.33ZM28.21 10.33C28.21 11.75 27.66 12.45 26.59 12.45C25.51 12.45 24.96 11.75 24.96 10.33L24.96 5.88C24.96 5.15 25.10 4.62 25.38 4.28C25.63 3.95 26.04 3.78 26.59 3.78C27.13 3.78 27.54 3.95 27.79 4.28C28.07 4.62 28.21 5.15 28.21 5.88ZM27.72 5.88C27.72 5.08 27.54 4.66 27.30 4.47C27.06 4.27 26.77 4.27 26.59 4.27C26.38 4.27 26.11 4.27 25.87 4.47C25.63 4.66 25.45 5.08 25.45 5.88L25.45 10.33C25.45 11.16 25.63 11.55 25.87 11.75C26.11 11.94 26.38 11.96 26.59 11.96C26.77 11.96 27.06 11.94 27.30 11.75C27.54 11.55 27.72 11.16 27.72 10.33ZM33.94 2.97L34.43 2.97L34.43 10.54C34.43 11.40 34.24 12.07 33.87 12.53C33.60 12.88 33.07 13.29 32.12 13.29C31.18 13.29 30.65 12.88 30.37 12.53C29.99 12.07 29.81 11.40 29.81 10.54L29.81 9.88L30.30 9.88L30.30 10.54C30.30 12.04 30.93 12.80 32.12 12.80C33.33 12.80 33.94 12.01 33.94 10.54ZM30.63 9.88L31.12 9.88L31.12 10.54C31.12 11.26 31.28 11.62 31.49 11.79C31.70 11.97 31.93 11.97 32.12 11.97C32.35 11.97 32.52 11.94 32.62 11.87C32.72 11.82 32.80 11.76 32.84 11.70C33.03 11.47 33.11 11.09 33.11 10.54L33.11 2.97L33.60 2.97L33.60 10.54C33.60 11.87 33.12 12.46 32.12 12.46C31.12 12.46 30.63 11.87 30.63 10.54ZM38.01 2.98L39.06 2.98L41.45 13.30L40.94 13.30L38.68 3.57L38.37 3.57L36.12 13.30L35.62 13.30ZM38.53 4.38L39.73 9.60L37.31 9.60ZM38.53 6.58L37.94 9.10L39.12 9.10ZM36.97 13.30L36.46 13.30L37.24 9.93L39.82 9.93L40.60 13.30L40.10 13.30L39.42 10.43L37.63 10.43ZM46.17 2.95L46.17 11.76L42.83 3.46L42.53 3.46L42.53 13.27L42.04 13.27L42.04 2.95L43.15 2.95L45.67 9.20L45.67 2.95ZM46.21 12.77L46.49 12.77L46.49 2.95L47.00 2.95L47.00 13.27L45.88 13.27L43.36 7.03L43.36 13.27L42.87 13.27L42.87 4.47ZM52.91 6.55L52.42 6.55L52.42 5.89C52.42 4.31 51.77 3.47 50.44 3.47C49.14 3.47 48.48 4.31 48.48 5.89L48.48 10.35C48.48 11.96 49.15 12.80 50.44 12.80C51.74 12.80 52.42 11.96 52.42 10.35L52.42 8.74L49.98 8.74L49.98 8.25L52.91 8.25L52.91 10.35C52.91 11.27 52.71 11.98 52.30 12.47C52.01 12.85 51.45 13.29 50.44 13.29C49.43 13.29 48.89 12.85 48.59 12.47C48.19 11.98 47.99 11.27 47.99 10.35L47.99 5.89C47.99 4.06 48.82 2.97 50.44 2.97C52.08 2.97 52.91 4.06 52.91 5.89ZM52.08 6.55L51.58 6.55L51.58 5.89C51.58 5.15 51.44 4.76 51.23 4.54C51.00 4.33 50.72 4.30 50.44 4.30C50.16 4.30 49.88 4.33 49.67 4.54C49.45 4.76 49.31 5.15 49.31 5.89L49.31 10.35C49.31 11.17 49.49 11.56 49.73 11.76C49.97 11.96 50.23 11.97 50.44 11.97C50.65 11.97 50.93 11.96 51.17 11.76C51.39 11.56 51.58 11.17 51.58 10.35L51.58 9.56L49.98 9.56L49.98 9.07L52.08 9.07L52.08 10.35C52.08 11.09 51.94 11.62 51.66 11.96C51.41 12.29 51.00 12.46 50.44 12.46C49.90 12.46 49.49 12.29 49.24 11.96C48.96 11.62 48.82 11.09 48.82 10.35L48.82 5.89C48.82 4.44 49.36 3.79 50.44 3.79C51.52 3.79 52.08 4.44 52.08 5.89ZM58.67 10.33C58.67 11.26 58.48 11.96 58.09 12.45C57.93 12.63 57.74 12.84 57.43 12.99C57.12 13.16 56.73 13.27 56.22 13.27C55.22 13.27 54.66 12.82 54.36 12.45C53.97 11.96 53.77 11.26 53.77 10.33L53.77 5.88C53.77 4.97 53.97 4.27 54.36 3.77C54.66 3.39 55.22 2.95 56.22 2.95C57.23 2.95 57.79 3.39 58.09 3.77C58.48 4.27 58.67 4.97 58.67 5.88ZM58.18 5.88C58.18 4.30 57.51 3.44 56.22 3.44C54.94 3.44 54.26 4.30 54.26 5.88L54.26 10.33C54.26 11.91 54.95 12.78 56.22 12.78C57.50 12.78 58.18 11.91 58.18 10.33ZM57.85 10.33C57.85 11.75 57.30 12.45 56.22 12.45C55.15 12.45 54.60 11.75 54.60 10.33L54.60 5.88C54.60 5.15 54.74 4.62 55.02 4.28C55.27 3.95 55.68 3.78 56.22 3.78C56.77 3.78 57.18 3.95 57.43 4.28C57.71 4.62 57.85 5.15 57.85 5.88ZM57.36 5.88C57.36 5.08 57.18 4.66 56.94 4.47C56.70 4.27 56.41 4.27 56.22 4.27C56.01 4.27 55.75 4.27 55.51 4.47C55.27 4.66 55.09 5.08 55.09 5.88L55.09 10.33C55.09 11.16 55.27 11.55 55.51 11.75C55.75 11.94 56.01 11.96 56.22 11.96C56.41 11.96 56.70 11.94 56.94 11.75C57.18 11.55 57.36 11.16 57.36 10.33Z"></path></g><!----><!----></svg>