<svg data-v-423bf9ae="" xmlns="http://www.w3.org/2000/svg" viewBox="0 0 270.6666487296045 60" class="font"><!----><!----><!----><g data-v-423bf9ae="" id="80aabaa6-84c5-4604-8a2f-ff1b172e169f" fill="#000000" transform="matrix(5.797101235611727,0,0,5.797101235611727,0.000001974919427993882,-17.101448683063346)"><path d="M4.79 13.30L4.28 13.30L4.28 10.25C4.28 9.56 4.09 9.02 3.68 8.61C3.51 8.46 3.32 8.33 3.09 8.23C3.88 7.94 4.27 7.17 4.27 5.92C4.27 4.26 3.61 3.49 2.14 3.49L0 3.49L0 2.98L2.14 2.98C3.92 2.98 4.76 4.00 4.76 5.92C4.76 6.87 4.55 7.60 4.14 8.09C4.13 8.11 4.10 8.13 4.09 8.16C4.06 8.19 4.03 8.22 4.00 8.23C4.51 8.72 4.79 9.39 4.79 10.25ZM0 3.81L0.49 3.81L0.49 13.30L0 13.30ZM0.83 8.05L0.83 3.81L2.14 3.81C3.42 3.81 3.93 4.42 3.93 5.92C3.93 7.43 3.42 8.05 2.14 8.05ZM1.32 4.31L1.32 7.56L2.14 7.56C2.49 7.56 2.74 7.52 2.88 7.43C3.01 7.35 3.09 7.28 3.14 7.24C3.35 6.97 3.44 6.54 3.44 5.92C3.44 5.24 3.33 4.83 3.12 4.59C2.90 4.37 2.58 4.31 2.14 4.31ZM3.96 13.30L3.46 13.30L3.46 10.25C3.46 9.34 3.02 8.89 2.14 8.89L1.32 8.89L1.32 13.30L0.83 13.30L0.83 8.39L2.14 8.39C3.30 8.39 3.96 9.06 3.96 10.25ZM8.37 2.98L9.42 2.98L11.82 13.30L11.30 13.30L9.04 3.57L8.74 3.57L6.48 13.30L5.98 13.30ZM8.89 4.38L10.09 9.60L7.67 9.60ZM8.89 6.58L8.30 9.10L9.48 9.10ZM7.34 13.30L6.82 13.30L7.60 9.93L10.18 9.93L10.96 13.30L10.46 13.30L9.79 10.43L7.99 10.43ZM16.53 2.95L16.53 11.76L13.19 3.46L12.89 3.46L12.89 13.27L12.40 13.27L12.40 2.95L13.51 2.95L16.03 9.20L16.03 2.95ZM16.58 12.77L16.86 12.77L16.86 2.95L17.36 2.95L17.36 13.27L16.24 13.27L13.72 7.03L13.72 13.27L13.23 13.27L13.23 4.47ZM23.27 6.55L22.78 6.55L22.78 5.89C22.78 4.31 22.13 3.47 20.80 3.47C19.50 3.47 18.84 4.31 18.84 5.89L18.84 10.35C18.84 11.96 19.52 12.80 20.80 12.80C22.11 12.80 22.78 11.96 22.78 10.35L22.78 8.74L20.34 8.74L20.34 8.25L23.27 8.25L23.27 10.35C23.27 11.27 23.07 11.98 22.67 12.47C22.37 12.85 21.81 13.29 20.80 13.29C19.80 13.29 19.25 12.85 18.96 12.47C18.55 11.98 18.35 11.27 18.35 10.35L18.35 5.89C18.35 4.06 19.18 2.97 20.80 2.97C22.44 2.97 23.27 4.06 23.27 5.89ZM22.44 6.55L21.94 6.55L21.94 5.89C21.94 5.15 21.80 4.76 21.59 4.54C21.36 4.33 21.08 4.30 20.80 4.30C20.52 4.30 20.24 4.33 20.03 4.54C19.81 4.76 19.67 5.15 19.67 5.89L19.67 10.35C19.67 11.17 19.85 11.56 20.09 11.76C20.33 11.96 20.59 11.97 20.80 11.97C21.01 11.97 21.29 11.96 21.53 11.76C21.76 11.56 21.94 11.17 21.94 10.35L21.94 9.56L20.34 9.56L20.34 9.07L22.44 9.07L22.44 10.35C22.44 11.09 22.30 11.62 22.02 11.96C21.77 12.29 21.36 12.46 20.80 12.46C20.26 12.46 19.85 12.29 19.60 11.96C19.32 11.62 19.18 11.09 19.18 10.35L19.18 5.89C19.18 4.44 19.73 3.79 20.80 3.79C21.88 3.79 22.44 4.44 22.44 5.89ZM29.04 10.33C29.04 11.26 28.84 11.96 28.45 12.45C28.29 12.63 28.10 12.84 27.79 12.99C27.48 13.16 27.09 13.27 26.59 13.27C25.58 13.27 25.02 12.82 24.72 12.45C24.33 11.96 24.14 11.26 24.14 10.33L24.14 5.88C24.14 4.97 24.33 4.27 24.72 3.77C25.02 3.39 25.58 2.95 26.59 2.95C27.59 2.95 28.15 3.39 28.45 3.77C28.84 4.27 29.04 4.97 29.04 5.88ZM28.55 5.88C28.55 4.30 27.87 3.44 26.59 3.44C25.30 3.44 24.63 4.30 24.63 5.88L24.63 10.33C24.63 11.91 25.31 12.78 26.59 12.78C27.86 12.78 28.55 11.91 28.55 10.33ZM28.21 10.33C28.21 11.75 27.66 12.45 26.59 12.45C25.51 12.45 24.96 11.75 24.96 10.33L24.96 5.88C24.96 5.15 25.10 4.62 25.38 4.28C25.63 3.95 26.04 3.78 26.59 3.78C27.13 3.78 27.54 3.95 27.79 4.28C28.07 4.62 28.21 5.15 28.21 5.88ZM27.72 5.88C27.72 5.08 27.54 4.66 27.30 4.47C27.06 4.27 26.77 4.27 26.59 4.27C26.38 4.27 26.11 4.27 25.87 4.47C25.63 4.66 25.45 5.08 25.45 5.88L25.45 10.33C25.45 11.16 25.63 11.55 25.87 11.75C26.11 11.94 26.38 11.96 26.59 11.96C26.77 11.96 27.06 11.94 27.30 11.75C27.54 11.55 27.72 11.16 27.72 10.33ZM34.48 10.32C34.48 12.21 33.64 13.30 31.86 13.30L29.81 13.30L29.81 12.81L31.86 12.81C32.58 12.81 33.11 12.60 33.49 12.17C33.82 11.75 33.99 11.13 33.99 10.32L33.99 5.98C33.99 4.35 33.31 3.49 31.86 3.49L29.81 3.49L29.81 2.98L31.86 2.98C32.75 2.98 33.42 3.26 33.87 3.82C34.27 4.31 34.48 5.04 34.48 5.98ZM29.81 3.81L30.30 3.81L30.30 12.47L29.81 12.47ZM30.63 12.47L30.63 3.81L31.86 3.81C32.49 3.81 32.96 3.99 33.22 4.34C33.52 4.69 33.66 5.24 33.66 5.98L33.66 10.32C33.66 11.06 33.52 11.61 33.22 11.96C32.94 12.31 32.49 12.47 31.86 12.47ZM31.12 4.31L31.12 11.98L31.86 11.98C32.20 11.98 32.52 11.96 32.76 11.73C32.98 11.51 33.15 11.09 33.15 10.32L33.15 5.98C33.15 5.21 32.98 4.79 32.76 4.56C32.52 4.34 32.20 4.31 31.86 4.31ZM35.78 3.49L35.78 12.81L39.56 12.81L39.56 13.30L35.29 13.30L35.29 2.98L39.56 2.98L39.56 3.49ZM36.12 3.81L39.56 3.81L39.56 4.31L36.61 4.31L36.61 7.48L39.56 7.48L39.56 7.98L36.12 7.98ZM36.12 8.30L39.56 8.30L39.56 8.81L36.61 8.81L36.61 11.98L39.56 11.98L39.56 12.47L36.12 12.47ZM43.44 12.75L43.72 12.75L46.17 2.98L46.69 2.98L44.10 13.30L43.06 13.30L40.50 2.98L40.99 2.98ZM43.58 9.91L45.33 2.98L45.82 2.98L43.58 11.96L41.34 2.98L41.86 2.98Z"></path></g><!----><!----></svg>